# xmcd CD database file
#
# Track frame offsets:
#	182
#	11272
#	24892
#	38130
#	53625
#	68350
#	81830
#	96312
#	110130
#	124010
#
# Disc length: 1834 seconds
#
# Revision: 4
# Processed by: cddbd v1.4PL0 Copyright (c) Steve Scherf et al.
# Submitted via: CDex 1.50Beta7
#
DISCID=7007280a
DTITLE=Haggard  Merle - Blue Jungle
DYEAR=1900
DGENRE=Country
TTITLE0=Blue Jungle
TTITLE1=Sometimes I Dream
TTITLE2=My Home Is In The Street
TTITLE3=When It Rains It Pours
TTITLE4=Me and Crippled Soldiers
TTITLE5=Under The Bridge
TTITLE6=Lucky Old Colorado
TTITLE7=Driftwood
TTITLE8=Never No Mo Blues
TTITLE9=A Bar In Bakersfield
EXTD=
EXTT0=
EXTT1=
EXTT2=
EXTT3=
EXTT4=
EXTT5=
EXTT6=
EXTT7=
EXTT8=
EXTT9=
PLAYORDER=
